<?xml version="1.0" encoding="UTF-8" standalone="no"?>
<svg
   version="1.1"
   viewBox="0 0 735.99 936.52"
   id="svg170"
   sodipodi:docname="color_mask_3.svg"
   inkscape:version="1.2.2 (b0a8486, 2022-12-01)"
   xmlns:inkscape="http://www.inkscape.org/namespaces/inkscape"
   xmlns:sodipodi="http://sodipodi.sourceforge.net/DTD/sodipodi-0.dtd"
   xmlns:xlink="http://www.w3.org/1999/xlink"
   xmlns="http://www.w3.org/2000/svg"
   xmlns:svg="http://www.w3.org/2000/svg">
  <sodipodi:namedview
     id="namedview172"
     pagecolor="#2d18ff"
     bordercolor="#666666"
     borderopacity="1.0"
     inkscape:showpageshadow="2"
     inkscape:pageopacity="0"
     inkscape:pagecheckerboard="0"
     inkscape:deskcolor="#d1d1d1"
     showgrid="false"
     inkscape:zoom="0.8766497"
     inkscape:cx="288.02839"
     inkscape:cy="388.41056"
     inkscape:window-width="1920"
     inkscape:window-height="1030"
     inkscape:window-x="0"
     inkscape:window-y="27"
     inkscape:window-maximized="1"
     inkscape:current-layer="svg170" />
  <defs
     id="defs70">
    <linearGradient
       id="ae">
      <stop
         offset="0"
         id="stop9" />
      <stop
         stop-color="#fbfbfb"
         offset="1"
         id="stop11" />
    </linearGradient>
    <linearGradient
       id="af">
      <stop
         stop-color="#fff"
         stop-opacity=".7"
         offset="0"
         id="stop14"
         style="stop-color:#ffffff;stop-opacity:0.5;" />
      <stop
         stop-color="#fff"
         stop-opacity=".2"
         offset="1"
         id="stop16"
         style="stop-color:#ffffff;stop-opacity:0.1;" />
    </linearGradient>
    <linearGradient
       id="ad">
      <stop
         stop-color="#fd5"
         offset="0"
         id="stop19"
         style="stop-color:#ffffff;stop-opacity:0.25;" />
      <stop
         stop-color="#ffcc01"
         offset="0.5"
         id="stop21"
         style="stop-color:#ffffff;stop-opacity:0;" />
      <stop
         stop-color="#ffcc01"
         offset="0.5"
         id="stop3893"
         style="stop-color:#000000;stop-opacity:0;" />
      <stop
         stop-color="#dcb000"
         offset="1"
         id="stop23"
         style="stop-color:#000000;stop-opacity:0.2;" />
    </linearGradient>
    <linearGradient
       id="bd"
       x1="394.42"
       x2="430.25"
       y1="861.45"
       y2="805"
       gradientUnits="userSpaceOnUse"
       xlink:href="#ae"
       gradientTransform="matrix(1.2015,0,0,1.2015,-78.1152,-184.4952)" />
    <linearGradient
       id="be"
       x1="379.07"
       x2="378.61"
       y1="854.99"
       y2="804.77"
       gradientUnits="userSpaceOnUse"
       xlink:href="#ae"
       gradientTransform="matrix(1.2015,0,0,1.2015,-78.1152,-184.4952)" />
    <linearGradient
       id="bf"
       x1="370.15"
       x2="352.78"
       y1="855.14"
       y2="804.01"
       gradientUnits="userSpaceOnUse"
       xlink:href="#ae"
       gradientTransform="matrix(1.2015,0,0,1.2015,-78.1152,-184.4952)" />
    <linearGradient
       id="ag"
       x1="387.06"
       x2="404.15"
       y1="855.76"
       y2="804.8"
       gradientUnits="userSpaceOnUse"
       xlink:href="#ae"
       gradientTransform="matrix(1.2015,0,0,1.2015,-78.1152,-184.4952)" />
    <linearGradient
       id="ah"
       x1="366.91"
       x2="340.37"
       y1="857.81"
       y2="804.1"
       gradientUnits="userSpaceOnUse"
       xlink:href="#ae"
       gradientTransform="matrix(1.2015,0,0,1.2015,-78.1152,-184.4952)" />
    <linearGradient
       id="ai"
       x1="374.3"
       x2="365.33"
       y1="854.23"
       y2="803.64"
       gradientUnits="userSpaceOnUse"
       xlink:href="#ae"
       gradientTransform="matrix(1.2015,0,0,1.2015,-78.1152,-184.4952)" />
    <linearGradient
       id="aj"
       x1="383.49"
       x2="390.82"
       y1="854.44"
       y2="803.85"
       gradientUnits="userSpaceOnUse"
       xlink:href="#ae"
       gradientTransform="matrix(1.2015,0,0,1.2015,-78.1152,-184.4952)" />
    <linearGradient
       id="ak"
       x1="391.11"
       x2="416.92"
       y1="856.55"
       y2="804.13"
       gradientUnits="userSpaceOnUse"
       xlink:href="#ae"
       gradientTransform="matrix(1.2015,0,0,1.2015,-78.1152,-184.4952)" />
    <linearGradient
       id="al"
       x1="364.04"
       x2="328.32"
       y1="863.35"
       y2="803.97"
       gradientUnits="userSpaceOnUse"
       xlink:href="#ae"
       gradientTransform="matrix(1.2015,0,0,1.2015,-78.1152,-184.4952)" />
    <linearGradient
       id="am"
       x1="379.15"
       x2="388.36"
       y1="850.82"
       y2="850.82"
       gradientTransform="matrix(1.2015,0,0,1.0209025,-78.1152,-32.52948)"
       gradientUnits="userSpaceOnUse">
      <stop
         stop-color="#826f30"
         offset="0"
         id="stop35" />
      <stop
         stop-color="#c8b369"
         offset=".5"
         id="stop37" />
      <stop
         stop-color="#826f30"
         offset="1"
         id="stop39" />
    </linearGradient>
    <linearGradient
       id="an"
       x1="356.09"
       x2="396.21"
       y1="874.56"
       y2="874.56"
       gradientUnits="userSpaceOnUse"
       gradientTransform="matrix(1.2015,0,0,1.2015,-78.1152,-184.4952)">
      <stop
         stop-color="#333"
         offset="0"
         id="stop42" />
      <stop
         stop-color="#bbb"
         offset=".55603"
         id="stop44" />
      <stop
         stop-color="#333"
         offset="1"
         id="stop46" />
    </linearGradient>
    <radialGradient
       id="ap"
       cx="391.56"
       cy="453.37"
       r="52.431"
       gradientTransform="matrix(1.2015,0,0,6.8723397,-78.1152,-2755.4649)"
       gradientUnits="userSpaceOnUse"
       xlink:href="#ad" />
    <radialGradient
       id="aq"
       cx="287.71"
       cy="454.48"
       r="73.192"
       gradientTransform="matrix(1.2015,0,0,4.9260298,-78.1152,-1876.3273)"
       gradientUnits="userSpaceOnUse"
       xlink:href="#ad" />
    <radialGradient
       id="ar"
       cx="488.95"
       cy="453.73"
       r="66.732"
       gradientTransform="matrix(1.2015,0,0,5.3771931,-78.1152,-2080.1017)"
       gradientUnits="userSpaceOnUse"
       xlink:href="#ad" />
    <radialGradient
       id="as"
       cx="575.98"
       cy="454.55"
       r="95.542"
       gradientTransform="matrix(1.2015,0,0,3.754327,-78.1152,-1344.0628)"
       gradientUnits="userSpaceOnUse"
       xlink:href="#ad" />
    <radialGradient
       id="at"
       cx="204.52"
       cy="457.79"
       r="100.12"
       gradientTransform="matrix(1.2015,0,0,3.573261,-78.1152,-1271.1198)"
       gradientUnits="userSpaceOnUse"
       xlink:href="#ad" />
    <radialGradient
       id="au"
       cx="625.54"
       cy="456.46"
       r="100.38"
       gradientTransform="matrix(1.2015,0,0,3.5387779,-78.1152,-1251.3431)"
       gradientUnits="userSpaceOnUse"
       xlink:href="#ad" />
    <radialGradient
       id="av"
       cx="108.23"
       cy="457.99"
       r="114.77"
       gradientTransform="matrix(1.2015,0,0,3.1198149,-78.1152,-1063.861)"
       gradientUnits="userSpaceOnUse"
       xlink:href="#ad" />
    <radialGradient
       id="aw"
       cx="677.21"
       cy="456.01"
       r="109.52"
       gradientTransform="matrix(1.2015,0,0,3.2382828,-78.1152,-1113.2787)"
       gradientUnits="userSpaceOnUse"
       xlink:href="#ad" />
    <radialGradient
       id="ax"
       cx="83.714"
       cy="461.88"
       r="118.49"
       gradientTransform="matrix(1.2015,0,0,2.9955798,-78.1152,-1013.1217)"
       gradientUnits="userSpaceOnUse"
       xlink:href="#ad" />
    <linearGradient
       id="ao"
       x1="298.21"
       x2="457.32"
       y1="783.27"
       y2="783.27"
       gradientUnits="userSpaceOnUse"
       gradientTransform="matrix(1.2015,0,0,1.2015,-78.1152,-184.4952)">
      <stop
         stop-color="#ff2d2d"
         offset="0"
         id="stop58"
         style="stop-color:#ffffff;stop-opacity:0.25;" />
      <stop
         stop-color="#8e0e0e"
         offset="0.45431"
         id="stop60"
         style="stop-color:#ffffff;stop-opacity:0;" />
      <stop
         stop-color="#8e0e0e"
         offset="0.45431"
         id="stop9773"
         style="stop-color:#000000;stop-opacity:0;" />
      <stop
         stop-color="#560000"
         offset="1"
         id="stop62"
         style="stop-color:#000000;stop-opacity:0.5;" />
    </linearGradient>
    <radialGradient
       id="ay"
       cx="233.17"
       cy="436.23"
       r="63.875"
       gradientTransform="matrix(1.2015,0,0,5.5711152,-78.1152,-2181.7486)"
       gradientUnits="userSpaceOnUse"
       xlink:href="#af" />
    <radialGradient
       id="az"
       cx="165.92"
       cy="426.08"
       r="94.495"
       gradientTransform="matrix(1.2015,0,0,3.7216462,-78.1152,-1346.3817)"
       gradientUnits="userSpaceOnUse"
       xlink:href="#af" />
    <radialGradient
       id="ba"
       cx="97.63"
       cy="421.53"
       r="113.71"
       gradientTransform="matrix(1.2015,0,0,3.0396748,-78.1152,-1043.1352)"
       gradientUnits="userSpaceOnUse"
       xlink:href="#af" />
    <radialGradient
       id="bb"
       cx="340.46"
       cy="213.08"
       r="19.054"
       gradientTransform="matrix(1.2015,0,0,3.7039842,-78.1152,-717.73291)"
       gradientUnits="userSpaceOnUse"
       xlink:href="#af" />
    <radialGradient
       id="bc"
       cx="399.81"
       cy="156.02"
       r="12.654"
       gradientTransform="matrix(1.2015,0,0,0.78184008,-78.1152,-115.67208)"
       gradientUnits="userSpaceOnUse"
       xlink:href="#af" />
  </defs>
  <path
     d="m 339.63433,4.66896 c -7.50468,3.5525952 -38.39032,8.484152 -38.39032,270.36153 0,102.4507 30.29582,299.11343 57.79695,444.73522 l 1.09549,12.07167 37.52765,-0.50002 0.82812,-11.72655 C 410.69225,552.98679 426.0342,424.30614 426.0342,270.03354 426.0342,46.662671 384.85399,3.9613606 384.85399,3.9613606 370.80245,-1.8605076 348.22987,0.60509051 339.63554,4.6735377 Z"
     fill="url(#ap)"
     stroke="#000000"
     stroke-width="1.00003px"
     id="path102"
     style="fill:#ffffff;fill-opacity:1;stroke:none;stroke-opacity:1"
     sodipodi:nodetypes="csccccsccc" />
  <path
     d="m 360.13665,731.83738 -27.43508,0.54153 -6.0913,-12.90156 C 316.26536,697.80229 183.96819,418.021 183.96819,282.15538 c 0,-320.85336 150.0855,-279.0913831 158.7542,-279.0363541 l 10e-4,-0.0025 c 0,0 -41.47578,-21.9393899 -41.47758,271.9067041 -0.002,102.45796 30.29402,299.12069 57.90339,444.76526 z"
     fill="url(#aq)"
     stroke="#000000"
     stroke-width="1.00003px"
     id="path104"
     style="fill:#ffffff;fill-opacity:1;stroke:none;stroke-opacity:1"
     sodipodi:nodetypes="cccsccccc" />
  <path
     d="M 428.39494,731.33736 H 397.6641 l 0.91222,-11.51158 C 409.469,557.33492 426.02939,424.72537 426.02939,270.03224 l 0.005,10e-6 c 0,-213.67476 -41.18021,-266.072175 -41.18021,-266.072175 0,0 159.15069,-41.48419 159.15069,270.145265 0,169.3274 -110.50385,445.40206 -110.50385,445.40206 z"
     fill="url(#ar)"
     stroke="#000000"
     stroke-width="1.00003px"
     id="path106"
     style="fill:#ffffff;fill-opacity:1;stroke:none;stroke-opacity:1"
     sodipodi:nodetypes="ccccccccc" />
  <path
     d="m 433.71179,719.20101 c 0,0 110.29409,-275.76828 110.29409,-445.09568 0,-274.398565 -131.62432,-270.58981 -131.62432,-270.58981 0,0 228.38112,-21.953808 228.38112,276.63336 0,173.85705 -179.93664,439.6649 -179.93664,439.6649 l -8.21876,11.52358 h -24.21234 l 5.31805,-12.1383 z"
     fill="url(#as)"
     stroke="#000000"
     stroke-width="1.00003px"
     id="path108"
     style="fill:#ffffff;fill-opacity:1;stroke:none;stroke-opacity:1"
     sodipodi:nodetypes="cscsccccc" />
  <path
     d="M 294.98659,719.62153 C 275.90557,694.25427 87.86001,440.44099 87.86001,289.98917 87.86001,6.71151 283.39212,8.790105 283.39212,8.790105 c 0,0 -99.41091,19.691384 -99.41091,273.365285 0,133.96724 131.39604,414.04891 142.52193,437.1057 l 6.19823,13.11782 -29.37566,-0.54153 -8.34032,-12.22164 z"
     fill="url(#at)"
     stroke="#000000"
     stroke-width="1.00003px"
     id="path110"
     style="fill:#ffffff;fill-opacity:1;stroke:none;stroke-opacity:1"
     sodipodi:nodetypes="cscsccccc" />
  <path
     d="m 482.63686,719.68161 c 0,0 219.74234,-246.86019 219.74234,-433.71747 0,-268.979805 -228.83769,-276.63336 -228.83769,-276.63336 0,0 167.16469,21.124773 167.16469,268.78756 0,177.60573 -179.69634,441.17879 -179.69634,441.17879 l -8.40258,12.04023 h 18.14435 l 11.89124,-11.65735 z"
     fill="url(#au)"
     stroke="#000000"
     stroke-width="1.00003px"
     id="path112"
     style="fill:#ffffff;fill-opacity:1;stroke:none;stroke-opacity:1"
     sodipodi:nodetypes="cscsccccc" />
  <path
     d="M 294.96256,719.57348 C 275.77821,693.81572 87.86001,437.72561 87.86001,289.98917 87.86001,5.77434 283.39212,8.790105 283.39212,8.790105 c 0,0 -261.434385,9.087305 -261.434385,292.204805 0,164.49736 226.266485,388.04845 258.322495,418.89095 l 11.18507,11.4515 11.86041,0.50002 -8.35353,-12.25561 z"
     fill="url(#av)"
     stroke="#000000"
     stroke-width="1.00003px"
     id="path114"
     style="fill:#ffffff;fill-opacity:1;stroke:none;stroke-opacity:1"
     sodipodi:nodetypes="cscsccccc" />
  <path
     d="m 484.69143,717.45884 c 0,0 250.82514,-217.80792 250.82514,-424.97055 0,-258.31049 -261.97506,-283.15751 -261.97506,-283.15751 0,0 228.83769,9.173332 228.83769,276.63336 0,184.97092 -217.68777,431.48268 -217.68777,431.48268 z"
     fill="url(#aw)"
     stroke="#000000"
     stroke-width="1.00003px"
     id="path116"
     style="fill:#ffffff;fill-opacity:1;stroke:none;stroke-opacity:1" />
  <path
     d="M 266.58313,719.5975 C 229.65143,687.23751 0.498945,479.46571 0.498945,306.22143 0.498945,45.075405 240.15013,16.119255 240.15013,16.119255 c 0,0 -218.20441,30.22974 -218.20441,284.887665 0,163.22378 225.73782,387.3636 258.20235,418.75879 l 11.31723,11.57165 h -10.68284 l -14.20894,-11.73155 z"
     fill="url(#ax)"
     stroke="#000000"
     stroke-width="1.00003px"
     id="path118"
     style="fill:#ffffff;fill-opacity:1;stroke:none;stroke-opacity:1"
     sodipodi:nodetypes="cscsccccc" />
  <path
     d="m 315.83262,781.87125 h 123.93472 c 7.79005,-16.84503 18.27722,-33.69006 30.98429,-50.53389 H 280.78246 c 13.52649,15.73725 26.37173,31.88301 35.04175,50.53389 z"
     fill="url(#ao)"
     stroke="#000000"
     stroke-width="1.00003px"
     id="path128"
     style="fill:#000000;fill-opacity:1;stroke:none;stroke-opacity:1" />
  <path
     d="m 250.27397,689.83942 c 13.81651,2.81955 16.77632,1.79732 21.67969,-2.20354 15.46931,6.73248 27.56781,5.09554 38.92308,-2.11272 17.47702,7.81564 21.51202,5.91102 41.82217,-0.43806 20.84603,7.65596 27.07428,6.55298 48.48861,-1.13181 21.7832,6.67073 28.51423,7.20011 45.75215,0.23134 22.09198,8.28482 23.81196,5.99415 37.93791,-1.99771 13.17685,9.8809 12.44536,6.809 25.23702,4.60616 2.79589,4.1161 0.91108,2.11143 5.39136,1.73224 15.00673,-15.97515 27.7904,-25.51131 40.5311,-42.05356 0,0 -6.71624,0.73604 -9.00828,-7.71804 -22.27724,1.28988 -19.19236,-0.78176 -31.24707,-8.55273 -16.60954,8.92186 -24.06831,11.11159 -49.17605,-1.49599 -23.56022,10.91852 -36.47511,11.96839 -61.17074,-0.97102 -24.02759,12.20243 -35.17976,15.35036 -62.61,1.4615 -24.50219,10.16878 -32.80677,13.24534 -54.46981,5.24395 -25.20267,8.39884 -35.8361,9.77816 -52.52013,0.57222 -13.17685,7.99863 -14.83163,11.439 -29.1427,7.51587 -3.8824,5.25668 -4.17647,8.55191 -10.33187,9.26308 14.09359,16.03162 29.54419,32.06323 39.5516,39.75029 5.1281,4.83475 10.64717,1.18132 14.36196,-1.70147 z"
     fill="#ff6600"
     fill-opacity="0.50199"
     id="path23291"
     style="fill:#000000;fill-opacity:1;stroke:none;stroke-width:1.2015"
     sodipodi:nodetypes="ccccccccccccccccccccc" />
  <path
     d="m 103.36945,544.37164 c 6.20131,0.0863 13.34627,-0.99455 17.84348,-8.29696 14.2594,6.54264 31.57662,2.38149 50.36928,-6.94672 21.4636,9.70969 45.87447,4.78197 72.40599,-3.06718 22.48247,8.06723 50.10007,8.82548 81.67428,-4.13654 31.18614,10.22825 60.2141,8.80364 88.55869,-1.9946 29.93778,12.00419 60.09338,11.36355 86.6201,0.0657 26.36572,11.69132 50.35366,12.81881 71.60339,1.7751 18.53915,10.89604 34.09256,12.50161 47.51933,7.49207 6.99153,4.94814 14.21134,9.09764 22.32987,10.10029 -12.46436,18.06936 -24.55866,34.2007 -38.72794,51.70055 -5.11395,-1.22553 -10.35153,-4.44567 -14.90702,-10.14066 -12.66981,8.60406 -27.6357,4.81981 -43.14105,-4.72298 -16.46536,10.54941 -36.88005,9.55637 -60.73463,-1.4925 -22.95946,10.4611 -49.70552,11.83489 -74.93582,-0.98396 -24.43971,13.33064 -47.32281,14.29304 -74.60407,1.47749 -24.87946,10.78935 -48.24143,13.23812 -69.71103,5.2747 -25.47901,8.48151 -47.37274,10.21563 -63.2025,0.53508 -15.47653,8.40137 -29.32622,11.10486 -41.39288,7.56957 -3.78388,5.24022 -8.5506,8.51479 -14.60664,9.20949 -14.57539,-17.04327 -28.95374,-34.67408 -42.96083,-53.41869 z"
     fill="#008000"
     fill-opacity="0.49801"
     id="path23293"
     style="fill:#000000;fill-opacity:1;stroke:none;stroke-width:1.2015"
     sodipodi:nodetypes="cccccccccccccccccccccc" />
  <path
     d="m 33.11077,430.91574 c 7.70691,0.0863 16.586569,-0.99455 22.175647,-8.29696 17.721413,6.54264 39.243043,2.38149 62.598323,-6.94673 26.67469,9.7097 56.13659,4.78197 89.10962,-3.06718 27.94093,8.06723 64.43765,8.82549 103.67769,-4.13653 38.75774,10.22825 76.10528,8.80363 111.33157,-1.99461 37.20629,12.00419 72.11303,11.36355 105.08011,0.0657 32.76698,11.69132 62.57888,12.81881 88.98779,1.7751 23.04021,10.89604 42.3698,12.50161 59.05642,7.49207 8.68898,4.94815 20.25144,9.09764 30.34105,10.10029 -5.97654,20.6671 -14.2766,33.14329 -25.20882,51.70055 -6.35555,-1.22553 -22.44945,-4.44567 -28.11097,-10.14066 -15.74587,8.60406 -35.26937,4.81981 -54.53923,-4.72298 -20.46294,10.54941 -51.68837,9.55637 -81.33453,-1.4925 -28.53373,10.4611 -67.31641,11.83489 -98.6723,-0.98396 -30.37337,13.33064 -66.47703,14.29304 -100.38182,1.47749 -30.91988,10.78935 -66.48844,13.23812 -93.17059,5.2747 -31.66499,8.48151 -64.1218,10.21563 -83.79483,0.53508 -19.23404,8.40137 -43.596944,11.10486 -58.593244,7.56957 -4.70256,5.24022 -12.523819,7.92795 -20.050185,8.62265 C 48.41528,463.05916 40.3204,451.61214 33.11077,430.91498 Z"
     fill="#008000"
     fill-opacity="0.49801"
     id="path23293-5"
     style="fill:#000000;fill-opacity:1;stroke:none;stroke-width:1.33944"
     sodipodi:nodetypes="cccccccccccccccccccccc" />
  <path
     d="m 667.55129,104.22268 c -9.03734,-1.72571 -8.93442,-0.46716 -16.17474,1.85728 -15.3942,-9.642335 -23.87925,-19.529179 -55.27422,-10.397779 -14.17782,-11.73241 -38.17755,-14.803685 -82.69446,-6.084045 -32.16604,-11.85748 -63.4913,-15.083613 -102.03652,-3.108503 -35.94605,-8.99923 -64.6843,-9.798494 -101.6941,1.647596 -35.56107,-3.75229 -65.65318,-5.688255 -98.05899,4.028035 -39.39173,0.56575 -72.37839,2.124621 -81.88243,12.764736 -26.40599,-2.58767 -45.81389,-1.91398 -53.748744,12.39829 -4.894981,-1.92973 -8.35811,-2.03762 -14.850755,-0.55709 13.664241,-23.667163 33.665597,-39.080857 62.886319,-55.951449 5.35437,-0.20697 0.95826,1.997739 4.75965,3.901029 12.94183,-12.53765 20.86304,-16.974787 42.4354,-12.403077 21.79861,-11.95985 37.80743,-13.438782 66.99607,-8.308132 23.20458,-15.010345 44.43708,-14.338486 80.81893,-6.321102 30.616,-12.785158 45.19846,-14.073162 80.74602,-3.167387 31.77319,-11.94291 47.45385,-10.873335 80.46076,3.507901 25.81726,-9.393809 40.7239,-10.169859 67.77153,5.388369 22.26914,-8.666544 36.64674,1.906874 48.87502,9.787642 5.07666,-3.26363 7.86941,2.081184 13.43938,4.331521 19.92874,11.505864 30.93729,19.803173 57.22605,46.686575 z"
     fill="#008000"
     fill-opacity="0.49801"
     id="path23295"
     style="fill:#000000;fill-opacity:1;stroke:none;stroke-width:1.16297"
     sodipodi:nodetypes="cccccccccccccccccccccc" />
  <path
     d="m 729.96372,229.53058 c -10.01979,-2.33812 -20.39547,-3.0756 -31.54779,-0.31446 -4.89828,-12.86086 -27.80631,-14.91662 -61.07825,-10.75331 -23.94229,-11.07302 -57.53023,-11.34336 -95.6406,-6.54901 -33.94719,-8.84677 -72.41201,-10.16445 -116.58756,-1.96337 -40.70201,-5.89396 -81.63351,-6.26571 -122.90143,1.47135 -42.79383,-1.65663 -82.501,-0.77084 -115.66,5.5066 -37.23448,-0.36845 -69.73745,2.86858 -95.047052,11.58618 -25.719309,-1.40191 -48.458898,1.58658 -65.102076,12.66501 -6.68815,-0.92427 -13.222507,-2.28981 -20.4783665,0.76476 4.2057315,-21.7099 9.8782525,-42.58236 18.0561425,-62.02263 5.819705,-1.47641 11.902179,-1.37668 18.290435,0.55708 8.092102,-12.30095 29.070292,-16.01118 61.033797,-12.39827 11.77674,-10.14042 45.26651,-13.40514 91.08931,-12.76474 29.29738,-8.11193 67.12781,-8.40317 110.04779,-4.02803 38.29902,-11.32173 77.25765,-10.77745 116.69329,-1.64762 39.18091,-10.96945 76.5019,-9.22343 112.27296,3.10852 46.38751,-8.56489 75.79543,-5.80949 91.49543,6.08404 31.59945,-6.81863 52.47791,-4.16356 59.64366,10.61093 7.94804,-3.2157 16.44253,-3.97048 25.52827,-2.07043 8.73346,20.01819 16.24428,40.44369 19.89444,62.1572 z"
     fill="#ff6600"
     fill-opacity="0.5"
     id="path23297"
     style="stroke-width:1.2015;fill:#000000;fill-opacity:1;stroke:none" />
  <path
     d="m 726.92372,361.58653 c -10.01979,-2.33812 -23.58413,-3.0756 -34.73645,-0.31446 -4.89828,-12.86086 -26.20855,-14.91662 -59.48049,-10.75331 -23.94229,-11.07302 -55.60258,-11.34336 -93.71295,-6.54901 -33.94719,-8.84677 -69.87546,-10.16445 -114.05101,-1.96337 -40.70201,-5.89396 -79.30921,-6.26571 -120.57713,1.47135 -42.79383,-1.65663 -79.7703,-0.77084 -112.9293,5.5066 -37.23448,-0.36845 -67.36033,2.86858 -92.669936,11.58618 -25.71931,-1.40191 -47.805423,1.58658 -64.448601,12.66501 -6.68815,-0.92427 -16.184524,-2.28981 -23.440383,0.76476 C 5.5864559,352.86088 -0.00107002,332.83123 0.58233874,311.97761 6.4020437,310.5012 15.929499,310.60097 22.317755,312.53473 c 8.092102,-12.30095 33.8517,-16.01124 65.815215,-12.39833 11.77674,-10.14042 50.08952,-13.40516 95.91232,-12.76476 29.29738,-8.11193 74.34155,-8.40309 117.26153,-4.02795 38.29902,-11.32173 85.2772,-10.77745 124.71284,-1.64762 39.18091,-10.96945 82.07403,-9.22348 117.84509,3.10847 46.38751,-8.56489 80.97683,-5.80944 96.67683,6.08409 31.59945,-6.81863 54.17821,-4.16356 61.34396,10.61093 7.94804,-3.2157 24.45223,-3.97048 33.53797,-2.07043 0,30.94376 -1.75563,36.98782 -8.49974,62.1572 z"
     fill="#ff6600"
     fill-opacity="0.5"
     id="path23297-3"
     style="fill:#000000;fill-opacity:1;stroke:none;stroke-width:1.2015"
     sodipodi:nodetypes="cccccccccccccccccccccc" />
  <path
     d="m 339.63433,4.6689586 c -7.50468,3.552595 -38.39032,8.4841524 -38.39032,270.3615314 0,102.4507 30.29582,299.11343 57.79695,444.73522 l 1.09549,12.07167 37.52765,-0.50002 0.82812,-11.72655 C 410.69225,552.98679 426.0342,424.30614 426.0342,270.03354 426.0342,46.66267 384.85399,3.9613596 384.85399,3.9613596 370.80245,-1.8605094 348.22987,0.60508959 339.63554,4.6735366 Z"
     fill="url(#ap)"
     stroke="#000000"
     stroke-width="1.00003px"
     id="path102-3"
     style="fill:#020202;fill-opacity:0.5;stroke:none"
     sodipodi:nodetypes="csccccsccc" />
  <path
     d="m 360.13665,731.83738 -27.43508,0.54153 -6.0913,-12.90156 C 316.26536,697.80229 183.96819,418.021 183.96819,282.15538 c 0,-320.853358 150.0855,-279.0913844 158.7542,-279.0363554 l 10e-4,-0.0025 c 0,0 -41.47578,-21.9393926 -41.47758,271.9067054 -0.002,102.45796 30.29402,299.12069 57.90339,444.76526 z"
     fill="url(#aq)"
     stroke="#000000"
     stroke-width="1.00003px"
     id="path104-6"
     style="fill:#ffffff;fill-opacity:0.5;stroke:none"
     sodipodi:nodetypes="cccsccccc" />
  <path
     d="M 428.39494,731.33736 H 397.6641 l 0.91222,-11.51158 C 409.469,557.33492 426.02939,424.72537 426.02939,270.03224 l 0.005,10e-6 c 0,-213.674761 -41.18021,-266.0721764 -41.18021,-266.0721764 0,0 159.15069,-41.4841916 159.15069,270.1452664 0,169.3274 -110.50385,445.40206 -110.50385,445.40206 z"
     fill="url(#ar)"
     stroke="#000000"
     stroke-width="1.00003px"
     id="path106-7"
     style="fill:#ffffff;fill-opacity:0.5;stroke:none"
     sodipodi:nodetypes="ccccccccc" />
  <path
     d="m 433.71179,719.20101 c 0,0 110.29409,-275.76828 110.29409,-445.09568 0,-274.39856641 -131.62432,-270.5898114 -131.62432,-270.5898114 0,0 228.38112,-21.9538066 228.38112,276.6333614 0,173.85705 -179.93664,439.6649 -179.93664,439.6649 l -8.21876,11.52358 h -24.21234 l 5.31805,-12.1383 z"
     fill="url(#as)"
     stroke="#000000"
     stroke-width="1.00003px"
     id="path108-5"
     style="fill:#020202;fill-opacity:0.5;stroke:none"
     sodipodi:nodetypes="cscsccccc" />
  <path
     d="M 294.98659,719.62153 C 275.90557,694.25427 87.86001,440.44099 87.86001,289.98917 87.86001,6.7115086 283.39212,8.7901036 283.39212,8.7901036 c 0,0 -99.41091,19.6913844 -99.41091,273.3652864 0,133.96724 131.39604,414.04891 142.52193,437.1057 l 6.19823,13.11782 -29.37566,-0.54153 -8.34032,-12.22164 z"
     fill="url(#at)"
     stroke="#000000"
     stroke-width="1.00003px"
     id="path110-3"
     style="fill:#020202;fill-opacity:0.5;stroke:none"
     sodipodi:nodetypes="cscsccccc" />
  <path
     d="m 482.63686,719.68161 c 0,0 219.74234,-246.86019 219.74234,-433.71747 0,-268.979806 -228.83769,-276.6333614 -228.83769,-276.6333614 0,0 167.16469,21.1247734 167.16469,268.7875614 0,177.60573 -179.69634,441.17879 -179.69634,441.17879 l -8.40258,12.04023 h 18.14435 l 11.89124,-11.65735 z"
     fill="url(#au)"
     stroke="#000000"
     stroke-width="1.00003px"
     id="path112-5"
     style="fill:#ffffff;fill-opacity:0.5;stroke:none"
     sodipodi:nodetypes="cscsccccc" />
  <path
     d="M 294.96256,719.57348 C 275.77821,693.81572 87.86001,437.72561 87.86001,289.98917 87.86001,5.7743386 283.39212,8.7901036 283.39212,8.7901036 c 0,0 -261.434385,9.0873054 -261.434385,292.2048064 0,164.49736 226.266485,388.04845 258.322495,418.89095 l 11.18507,11.4515 11.86041,0.50002 -8.35353,-12.25561 z"
     fill="url(#av)"
     stroke="#000000"
     stroke-width="1.00003px"
     id="path114-6"
     style="fill:#ffffff;fill-opacity:0.5;stroke:none"
     sodipodi:nodetypes="cscsccccc" />
  <path
     d="m 484.69143,717.45884 c 0,0 250.82514,-217.80792 250.82514,-424.97055 0,-258.310491 -261.97506,-283.1575114 -261.97506,-283.1575114 0,0 228.83769,9.1733324 228.83769,276.6333614 0,184.97092 -217.68777,431.48268 -217.68777,431.48268 z"
     fill="url(#aw)"
     stroke="#000000"
     stroke-width="1.00003px"
     id="path116-2"
     style="fill:#020202;fill-opacity:0.5;stroke:none" />
  <path
     d="M 266.58313,719.5975 C 229.65143,687.23751 0.498945,479.46571 0.498945,306.22143 0.498945,45.075404 240.15013,16.119254 240.15013,16.119254 c 0,0 -218.20441,30.22974 -218.20441,284.887666 0,163.22378 225.73782,387.3636 258.20235,418.75879 l 11.31723,11.57165 h -10.68284 l -14.20894,-11.73155 z"
     fill="url(#ax)"
     stroke="#000000"
     stroke-width="1.00003px"
     id="path118-9"
     style="fill:#020202;fill-opacity:0.5;stroke:none"
     sodipodi:nodetypes="cscsccccc" />
</svg>
