<?xml version="1.0" encoding="UTF-8" standalone="no"?>
<svg
   version="1.1"
   viewBox="0 0 735.99 936.52"
   id="svg1110"
   sodipodi:docname="color_mask_5.svg"
   inkscape:version="1.2.2 (b0a8486, 2022-12-01)"
   xmlns:inkscape="http://www.inkscape.org/namespaces/inkscape"
   xmlns:sodipodi="http://sodipodi.sourceforge.net/DTD/sodipodi-0.dtd"
   xmlns:xlink="http://www.w3.org/1999/xlink"
   xmlns="http://www.w3.org/2000/svg"
   xmlns:svg="http://www.w3.org/2000/svg">
  <sodipodi:namedview
     id="namedview1112"
     pagecolor="#6eaeff"
     bordercolor="#666666"
     borderopacity="1.0"
     inkscape:showpageshadow="2"
     inkscape:pageopacity="0"
     inkscape:pagecheckerboard="0"
     inkscape:deskcolor="#d1d1d1"
     showgrid="false"
     inkscape:zoom="0.87664972"
     inkscape:cx="314.26463"
     inkscape:cy="377.00349"
     inkscape:window-width="1920"
     inkscape:window-height="1030"
     inkscape:window-x="0"
     inkscape:window-y="27"
     inkscape:window-maximized="1"
     inkscape:current-layer="svg1110" />
  <defs
     id="defs1010">
    <linearGradient
       id="ae">
      <stop
         offset="0"
         id="stop949" />
      <stop
         stop-color="#fbfbfb"
         offset="1"
         id="stop951" />
    </linearGradient>
    <linearGradient
       id="af">
      <stop
         stop-color="#fff"
         stop-opacity=".7"
         offset="0"
         id="stop954" />
      <stop
         stop-color="#fff"
         stop-opacity=".2"
         offset="1"
         id="stop956" />
    </linearGradient>
    <linearGradient
       id="ad">
      <stop
         stop-color="#fd5"
         offset="0"
         id="stop959" />
      <stop
         stop-color="#ffcc01"
         offset=".5"
         id="stop961" />
      <stop
         stop-color="#dcb000"
         offset="1"
         id="stop963" />
    </linearGradient>
    <linearGradient
       id="bd"
       x1="394.42"
       x2="430.25"
       y1="861.45"
       y2="805"
       gradientUnits="userSpaceOnUse"
       xlink:href="#ae"
       gradientTransform="matrix(1.2015,0,0,1.2015,-78.1152,-184.4952)" />
    <linearGradient
       id="be"
       x1="379.07"
       x2="378.61"
       y1="854.99"
       y2="804.77"
       gradientUnits="userSpaceOnUse"
       xlink:href="#ae"
       gradientTransform="matrix(1.2015,0,0,1.2015,-78.1152,-184.4952)" />
    <linearGradient
       id="bf"
       x1="370.15"
       x2="352.78"
       y1="855.14"
       y2="804.01"
       gradientUnits="userSpaceOnUse"
       xlink:href="#ae"
       gradientTransform="matrix(1.2015,0,0,1.2015,-78.1152,-184.4952)" />
    <linearGradient
       id="ag"
       x1="387.06"
       x2="404.15"
       y1="855.76"
       y2="804.8"
       gradientUnits="userSpaceOnUse"
       xlink:href="#ae"
       gradientTransform="matrix(1.2015,0,0,1.2015,-78.1152,-184.4952)" />
    <linearGradient
       id="ah"
       x1="366.91"
       x2="340.37"
       y1="857.81"
       y2="804.1"
       gradientUnits="userSpaceOnUse"
       xlink:href="#ae"
       gradientTransform="matrix(1.2015,0,0,1.2015,-78.1152,-184.4952)" />
    <linearGradient
       id="ai"
       x1="374.3"
       x2="365.33"
       y1="854.23"
       y2="803.64"
       gradientUnits="userSpaceOnUse"
       xlink:href="#ae"
       gradientTransform="matrix(1.2015,0,0,1.2015,-78.1152,-184.4952)" />
    <linearGradient
       id="aj"
       x1="383.49"
       x2="390.82"
       y1="854.44"
       y2="803.85"
       gradientUnits="userSpaceOnUse"
       xlink:href="#ae"
       gradientTransform="matrix(1.2015,0,0,1.2015,-78.1152,-184.4952)" />
    <linearGradient
       id="ak"
       x1="391.11"
       x2="416.92"
       y1="856.55"
       y2="804.13"
       gradientUnits="userSpaceOnUse"
       xlink:href="#ae"
       gradientTransform="matrix(1.2015,0,0,1.2015,-78.1152,-184.4952)" />
    <linearGradient
       id="al"
       x1="364.04"
       x2="328.32"
       y1="863.35"
       y2="803.97"
       gradientUnits="userSpaceOnUse"
       xlink:href="#ae"
       gradientTransform="matrix(1.2015,0,0,1.2015,-78.1152,-184.4952)" />
    <linearGradient
       id="am"
       x1="379.15"
       x2="388.36"
       y1="850.82"
       y2="850.82"
       gradientTransform="matrix(1.2015,0,0,1.0209025,-78.1152,-32.52948)"
       gradientUnits="userSpaceOnUse">
      <stop
         stop-color="#826f30"
         offset="0"
         id="stop975" />
      <stop
         stop-color="#c8b369"
         offset=".5"
         id="stop977" />
      <stop
         stop-color="#826f30"
         offset="1"
         id="stop979" />
    </linearGradient>
    <linearGradient
       id="an"
       x1="356.09"
       x2="396.21"
       y1="874.56"
       y2="874.56"
       gradientUnits="userSpaceOnUse"
       gradientTransform="matrix(1.2015,0,0,1.2015,-78.1152,-184.4952)">
      <stop
         stop-color="#333"
         offset="0"
         id="stop982" />
      <stop
         stop-color="#bbb"
         offset=".55603"
         id="stop984" />
      <stop
         stop-color="#333"
         offset="1"
         id="stop986" />
    </linearGradient>
    <radialGradient
       id="ap"
       cx="391.56"
       cy="453.37"
       r="52.431"
       gradientTransform="matrix(1.2015,0,0,6.8723397,-78.1152,-2755.4649)"
       gradientUnits="userSpaceOnUse"
       xlink:href="#ad" />
    <radialGradient
       id="aq"
       cx="287.71"
       cy="454.48"
       r="73.192"
       gradientTransform="matrix(1.2015,0,0,4.9260298,-78.1152,-1876.3273)"
       gradientUnits="userSpaceOnUse"
       xlink:href="#ad" />
    <radialGradient
       id="ar"
       cx="488.95"
       cy="453.73"
       r="66.732"
       gradientTransform="matrix(1.2015,0,0,5.3771931,-78.1152,-2080.1017)"
       gradientUnits="userSpaceOnUse"
       xlink:href="#ad" />
    <radialGradient
       id="as"
       cx="575.98"
       cy="454.55"
       r="95.542"
       gradientTransform="matrix(1.2015,0,0,3.754327,-78.1152,-1344.0629)"
       gradientUnits="userSpaceOnUse"
       xlink:href="#ad" />
    <radialGradient
       id="at"
       cx="204.52"
       cy="457.79"
       r="100.12"
       gradientTransform="matrix(1.2015,0,0,3.573261,-78.1152,-1271.1198)"
       gradientUnits="userSpaceOnUse"
       xlink:href="#ad" />
    <radialGradient
       id="au"
       cx="625.54"
       cy="456.46"
       r="100.38"
       gradientTransform="matrix(1.2015,0,0,3.5387779,-78.1152,-1251.3431)"
       gradientUnits="userSpaceOnUse"
       xlink:href="#ad" />
    <radialGradient
       id="av"
       cx="108.23"
       cy="457.99"
       r="114.77"
       gradientTransform="matrix(1.2015,0,0,3.1198149,-78.1152,-1063.861)"
       gradientUnits="userSpaceOnUse"
       xlink:href="#ad" />
    <radialGradient
       id="aw"
       cx="677.21"
       cy="456.01"
       r="109.52"
       gradientTransform="matrix(1.2015,0,0,3.2382828,-78.1152,-1113.2787)"
       gradientUnits="userSpaceOnUse"
       xlink:href="#ad" />
    <radialGradient
       id="ax"
       cx="83.714"
       cy="461.88"
       r="118.49"
       gradientTransform="matrix(1.2015,0,0,2.9955798,-78.1152,-1013.1217)"
       gradientUnits="userSpaceOnUse"
       xlink:href="#ad" />
    <linearGradient
       id="ao"
       x1="298.21"
       x2="457.32"
       y1="783.27"
       y2="783.27"
       gradientUnits="userSpaceOnUse"
       gradientTransform="matrix(1.2015,0,0,1.2015,-78.1152,-184.4952)">
      <stop
         stop-color="#ff2d2d"
         offset="0"
         id="stop998" />
      <stop
         stop-color="#8e0e0e"
         offset=".45431"
         id="stop1000" />
      <stop
         stop-color="#560000"
         offset="1"
         id="stop1002" />
    </linearGradient>
    <radialGradient
       id="ay"
       cx="233.17"
       cy="436.23"
       r="63.875"
       gradientTransform="matrix(1.2015,0,0,5.5711152,-78.1152,-2181.7486)"
       gradientUnits="userSpaceOnUse"
       xlink:href="#af" />
    <radialGradient
       id="az"
       cx="165.92"
       cy="426.08"
       r="94.495"
       gradientTransform="matrix(1.2015,0,0,3.7216462,-78.1152,-1346.3817)"
       gradientUnits="userSpaceOnUse"
       xlink:href="#af" />
    <radialGradient
       id="ba"
       cx="97.63"
       cy="421.53"
       r="113.71"
       gradientTransform="matrix(1.2015,0,0,3.0396748,-78.1152,-1043.1352)"
       gradientUnits="userSpaceOnUse"
       xlink:href="#af" />
    <radialGradient
       id="bb"
       cx="340.46"
       cy="213.08"
       r="19.054"
       gradientTransform="matrix(1.2015,0,0,3.7039842,-78.1152,-717.73292)"
       gradientUnits="userSpaceOnUse"
       xlink:href="#af" />
    <radialGradient
       id="bc"
       cx="399.81"
       cy="156.02"
       r="12.654"
       gradientTransform="matrix(1.2015,0,0,0.78184008,-78.1152,-115.67208)"
       gradientUnits="userSpaceOnUse"
       xlink:href="#af" />
  </defs>
  <path
     d="m 260.02294,713.8303 h 229.06598 l -21.87451,21.87451 H 285.07903 Z"
     fill="#5d5d00"
     id="path1012"
     style="stroke-width:1.2015;fill:#808080;fill-opacity:1;stroke:none" />
  <path
     d="m 339.63433,4.66896 c -7.50468,3.5525952 -38.39032,8.484152 -38.39032,270.36153 0,102.4507 30.29582,299.11343 57.79695,444.73522 6.03754,5.54216 36.51719,4.23926 39.45126,-0.1549 C 410.69225,552.98679 426.0342,424.30614 426.0342,270.03354 426.0342,46.662671 384.85399,3.9613606 384.85399,3.9613606 370.80245,-1.8605076 348.22987,0.60509051 339.63554,4.6735377 Z"
     fill="url(#ap)"
     stroke="#000000"
     stroke-width="1.00003px"
     id="path1042"
     style="fill:#000000;fill-opacity:1" />
  <path
     d="m 342.72219,3.119025 c -8.6687,-0.055029 -158.7542,-41.817006 -158.7542,279.036355 0,135.86562 132.29717,415.64691 142.64208,437.32197 3.74688,4.65942 27.62609,3.81297 32.64716,0.33393 -13.72834,-149.28638 -55.54174,-295.76124 -58.00962,-444.7953 0,-293.838844 41.47578,-271.8994541 41.47578,-271.8994541 z"
     fill="url(#aq)"
     stroke="#000000"
     stroke-width="1.00003px"
     id="path1044"
     style="fill:#000000;fill-opacity:1" />
  <path
     d="m 426.0342,270.03225 c 0,-213.67476 -41.18021,-266.072175 -41.18021,-266.072175 0,0 159.15069,-41.48419 159.15069,270.145265 0,128.04385 -38.32785,314.52867 -110.71342,445.70844 -6.87306,4.56846 -27.17312,3.67863 -34.71494,0.012 10.89268,-162.49086 27.45307,-295.10041 27.45307,-449.79354 z"
     fill="url(#ar)"
     stroke="#000000"
     stroke-width="1.00003px"
     id="path1046"
     style="fill:#000000;fill-opacity:1" />
  <path
     d="m 433.71179,719.20101 c 0,0 110.29409,-275.76828 110.29409,-445.09568 0,-274.398565 -131.62432,-270.58981 -131.62432,-270.58981 0,0 228.38112,-21.953808 228.38112,276.63336 0,173.85705 -179.93664,439.6649 -179.93664,439.6649 -8.83487,4.38187 -17.58155,3.24008 -27.11305,-0.61472 z"
     fill="url(#as)"
     stroke="#000000"
     stroke-width="1.00003px"
     id="path1048"
     style="fill:#000000;fill-opacity:1" />
  <path
     d="M 294.98659,719.62153 C 275.90557,694.25427 87.86001,440.44099 87.86001,289.98917 87.86001,6.71151 283.39212,8.790105 283.39212,8.790105 c 0,0 -99.41091,19.691384 -99.41091,273.365285 0,133.96724 131.39604,414.04891 142.52193,437.1057 -3.25943,4.50946 -27.67535,4.73655 -31.51775,0.35465 z"
     fill="url(#at)"
     stroke="#000000"
     stroke-width="1.00003px"
     id="path1050"
     style="fill:#000000;fill-opacity:1" />
  <path
     d="m 482.63686,719.68161 c 0,0 219.74234,-246.86019 219.74234,-433.71747 0,-268.979805 -228.83769,-276.63336 -228.83769,-276.63336 0,0 167.16469,21.124773 167.16469,268.78756 0,177.60573 -179.69634,441.17879 -179.69634,441.17879 8.39332,3.35567 15.4549,5.31027 21.63301,0.38288 z"
     fill="url(#au)"
     stroke="#000000"
     stroke-width="1.00003px"
     id="path1052"
     style="fill:#000000;fill-opacity:1" />
  <path
     d="M 294.96256,719.57348 C 275.77821,693.81572 87.86001,437.72561 87.86001,289.98917 87.86001,5.77434 283.39212,8.790105 283.39212,8.790105 c 0,0 -261.434385,9.087305 -261.434385,292.204805 0,164.49736 226.266485,388.04845 258.322495,418.89095 5.71975,4.30678 12.42111,4.62686 14.69195,-0.30409 z"
     fill="url(#av)"
     stroke="#000000"
     stroke-width="1.00003px"
     id="path1054"
     style="fill:#000000;fill-opacity:1" />
  <path
     d="m 484.69143,717.45884 c 0,0 250.82514,-217.80792 250.82514,-424.97055 0,-258.31049 -261.97506,-283.15751 -261.97506,-283.15751 0,0 228.83769,9.173332 228.83769,276.63336 0,184.97092 -217.68777,431.48268 -217.68777,431.48268 z"
     fill="url(#aw)"
     stroke="#000000"
     stroke-width="1.00003px"
     id="path1056"
     style="fill:#000000;fill-opacity:1" />
  <path
     d="M 266.58313,719.5975 C 229.65143,687.23751 0.498945,479.46571 0.498945,306.22143 0.498945,45.075405 240.15013,16.119255 240.15013,16.119255 c 0,0 -218.20441,30.22974 -218.20441,284.887665 0,163.22378 225.73782,387.3636 258.20235,418.75879 -4.29801,4.10277 -10.19977,2.88445 -13.57455,-0.1599 z"
     fill="url(#ax)"
     stroke="#000000"
     stroke-width="1.00003px"
     id="path1058"
     style="fill:#000000;fill-opacity:1" />
  <path
     d="m 189.83131,645.66921 c 4.78906,-0.65843 8.72494,-3.8764 12.38387,-7.92449 11.5851,4.04208 22.08957,-0.0232 32.56185,-4.326 15.46931,6.73248 33.36445,4.17257 52.2292,-2.11272 17.47702,7.81564 36.89927,5.91102 57.20942,-0.43806 20.84603,7.65596 42.01646,6.55298 63.43079,-1.13181 21.7832,6.67073 41.51904,7.20011 58.75696,0.23134 22.09198,8.28482 38.09235,6.17559 50.53629,-1.99774 13.17685,9.8809 24.55626,10.04743 34.89637,4.60619 2.79589,4.1161 5.82943,7.53485 10.30971,7.15566 15.00673,-15.97515 28.45032,-32.34198 41.19102,-48.88423 -5.15948,-1.05707 -10.71474,-5.10109 -15.33354,-10.56695 -10.98375,7.5179 -24.9131,6.9359 -42.71573,-4.29657 -16.60954,8.92186 -35.87559,11.11159 -60.98333,-1.49599 -23.56022,10.91852 -47.59022,11.96839 -72.28585,-0.97102 -24.02759,12.20243 -49.23747,15.35036 -76.66771,1.4615 -24.50219,10.16878 -47.8954,13.24534 -69.55844,5.24395 -25.20267,8.39884 -47.00869,9.77816 -63.69272,0.57222 -13.17685,7.99863 -26.78744,11.439 -41.09851,7.51587 -3.8824,5.25668 -8.7456,8.55191 -14.901,9.26308 14.09359,16.03162 28.50559,32.06323 43.73099,48.09484 z"
     fill="#ff6600"
     fill-opacity="0.50199"
     id="path1060"
     style="stroke-width:1.2015;fill:#ffffff;fill-opacity:1;stroke:none" />
  <path
     d="m 103.14309,544.15448 c 6.2013,0.0863 13.34626,-0.99455 17.84348,-8.29696 14.2594,6.54264 31.57662,2.38149 50.36928,-6.94672 21.4636,9.70969 45.87447,4.78197 72.40599,-3.06719 22.48247,8.06724 51.58521,8.8255 83.15942,-4.13652 31.18614,10.22825 60.7971,8.80363 89.14169,-1.99461 29.93778,12.00419 58.02524,11.36355 84.55196,0.0657 26.36572,11.69132 50.35366,12.81881 71.60339,1.7751 18.53915,10.89604 34.09256,12.50161 47.51933,7.49207 6.99153,4.94814 14.21134,9.09764 22.32987,10.10029 -12.46436,18.06936 -24.55866,34.2007 -38.72794,51.70055 -5.11395,-1.22553 -10.35153,-4.44567 -14.90702,-10.14066 -12.66981,8.60406 -27.6357,4.81981 -43.14105,-4.72298 -16.46536,10.54941 -36.88005,9.55637 -60.73463,-1.4925 -22.95946,10.4611 -46.80443,11.83489 -72.03473,-0.98396 -24.43971,13.33064 -50.2239,14.29304 -77.50516,1.47749 -24.87946,10.78935 -48.24143,13.23812 -69.71103,5.2747 -25.47901,8.48151 -47.37274,10.21563 -63.2025,0.53508 -15.47653,8.40137 -29.32622,11.10486 -41.39288,7.56957 -3.78388,5.24022 -8.5506,8.51479 -14.60664,9.20949 -14.57539,-17.04327 -28.95374,-34.67408 -42.96083,-53.41869 z"
     fill="#008000"
     fill-opacity="0.49801"
     id="path1062"
     style="stroke-width:1.2015;fill:#808080;fill-opacity:1;stroke:none" />
  <path
     d="m 709.84051,167.15982 c -9.64612,-1.72571 -18.01288,-0.46716 -25.74093,1.85728 -2.84071,-11.88656 -25.91996,-19.52918 -59.4298,-10.39778 -15.13289,-11.73241 -43.9797,-14.80368 -91.49542,-6.08404 -34.33286,-11.85748 -71.1312,-15.08363 -112.27297,-3.10852 -38.3675,-8.99923 -77.19037,-9.79847 -116.69328,1.64762 -37.95659,-3.75229 -75.45901,-5.68826 -110.04779,4.02803 -42.04529,0.56575 -80.94506,2.12461 -91.08932,12.76473 -28.184787,-2.58767 -52.564423,-1.91399 -61.033797,12.39828 -5.224723,-1.92973 -11.360423,-2.03762 -18.290434,-0.55709 7.382736,-19.24322 18.291636,-37.84484 31.925056,-55.95145 5.715055,-0.20697 9.018459,1.99774 13.075925,3.90103 13.813645,-12.53765 31.98874,-16.97479 55.01428,-12.40308 23.26705,-11.95985 51.37254,-13.43878 82.52743,-8.30813 24.76772,-15.010344 60.41262,-14.961082 102.26087,-6.3211 32.6784,-12.785157 67.91118,-14.073165 105.85335,-3.16739 33.91354,-11.94291 68.47709,-10.873335 103.70747,3.5079 27.5564,-9.393808 55.56697,-10.169857 84.43662,5.38837 23.76927,-8.666543 44.51317,-5.0749 55.87215,9.78766 5.41864,-3.26364 8.70355,-3.97264 16.74891,-3.29572 13.35347,15.79492 25.28917,33.41251 34.67048,54.31381 z"
     fill="#008000"
     fill-opacity="0.49801"
     id="path1064"
     style="stroke-width:1.2015;fill:#808080;fill-opacity:1;stroke:none" />
  <path
     d="m 729.73736,229.31342 c -10.01979,-2.33812 -20.39547,-3.0756 -31.54779,-0.31446 -4.89828,-12.86086 -27.80631,-14.91662 -61.07825,-10.75331 -23.94229,-11.07302 -57.53023,-11.34336 -95.6406,-6.54901 -33.94719,-8.84677 -72.41201,-10.16445 -116.58756,-1.96337 -40.70201,-5.89396 -81.63351,-6.26571 -122.90143,1.47135 -42.79383,-1.65662 -82.501,-0.77084 -115.66,5.5066 -37.23448,-0.36845 -69.73746,2.86858 -95.047057,11.58618 -25.719309,-1.40191 -48.458898,1.58658 -65.102076,12.66501 -6.68815,-0.92427 -13.222507,-2.28981 -20.478366,0.76476 4.2057306,-21.7099 9.878252,-42.58236 18.056142,-62.02263 5.819706,-1.47641 11.902179,-1.37668 18.290435,0.55708 8.092102,-12.30095 29.070292,-16.01118 61.033792,-12.39827 11.77675,-10.14042 45.26652,-13.40514 91.08932,-12.76474 29.29738,-8.11193 67.12781,-8.40317 110.04779,-4.02803 38.29902,-11.32173 77.25765,-10.77745 116.69329,-1.64762 39.18091,-10.96945 76.5019,-9.22343 112.27296,3.10853 46.38751,-8.5649 75.79543,-5.8095 91.49543,6.08403 31.59945,-6.81863 52.47791,-4.16356 59.64366,10.61093 7.94804,-3.2157 16.44253,-3.97048 25.52827,-2.07043 8.73346,20.01819 16.24428,40.44369 19.89444,62.1572 z"
     fill="#ff6600"
     fill-opacity="0.5"
     id="path1066"
     style="stroke-width:1.2015;fill:#ffffff;fill-opacity:1;stroke:none" />
  <path
     d="m 315.83262,781.87125 h 123.93472 c 7.79005,-16.84503 18.27722,-33.69006 30.98429,-50.53389 H 280.78246 c 13.52649,15.73725 26.37173,31.88301 35.04175,50.53389 z"
     fill="url(#ao)"
     stroke="#000000"
     stroke-width="1.00003px"
     id="path1068"
     style="fill:#ffffff;fill-opacity:1;stroke:none" />
  <path
     d="M 456.33603,6.44718 C 444.9571,5.4759595 433.02813,4.5047149 420.53974,3.5335425 437.15528,9.7925164 445.76043,10.153687 456.33603,6.44718 Z"
     fill="none"
     stroke="#000000"
     stroke-width="1.00003px"
     id="path1084" />
</svg>
